<?xml version="1.0" encoding="UTF-8"?>
<svg width="700pt" height="700pt" version="1.1" viewBox="0 0 700 700" xmlns="http://www.w3.org/2000/svg">
 <path d="m585.81 129.8c0-2.6133-2.125-4.7383-4.7383-4.7383h-462.14c-2.6133 0-4.7383 2.125-4.7383 4.7383v300.39c0 2.6133 2.125 4.7383 4.7383 4.7383h462.14c1.168 0 2.1719-0.51172 3.0117-1.2617 0.25781-0.21094 0.375-0.46484 0.58203-0.74609 0.28125-0.35156 0.65234-0.60547 0.83984-1.0508 0.14062-0.375 0.023438-0.74609 0.070313-1.1445 0.023437-0.21094 0.23438-0.35156 0.23438-0.55859zm-9.4766 289.73-154.86-140 154.86-140.02zm-8.6094-285-217.75 196.86-217.7-196.86zm-444.05 4.9727 155.89 140.96-155.89 140.93zm9.6133 285.95 153.32-138.6 60.199 54.414c0.91016 0.81641 2.0312 1.2148 3.1719 1.2148 1.1445 0 2.2617-0.39844 3.1719-1.2148l61.25-55.371 154.35 139.56z"/>
</svg>
